<?xml version="1.0" encoding="UTF-8"?>
<!-- Generator: visioncortex VTracer 0.6.2 -->
<svg version="1.1" xmlns="http://www.w3.org/2000/svg" width="1280" height="1280">
<path d="M0 0 C1.20101097 0.00013784 1.20101097 0.00013784 2.42628479 0.00027847 C26.16949635 0.00380411 49.53172559 0.40521128 73 4.375 C74.37337009 4.59737601 75.7469108 4.8187004 77.12060547 5.0390625 C100.42749448 8.80249448 100.42749448 8.80249448 102 10.375 C103.91270005 10.61277239 105.82578616 10.84786166 107.74072266 11.06689453 C111.29137336 11.55110905 114.72071184 12.42009233 118.1875 13.3125 C118.87263672 13.48201172 119.55777344 13.65152344 120.26367188 13.82617188 C123.97491347 14.76559107 127.4642923 15.91912036 131 17.375 C132.99760305 17.72240923 134.99787771 18.05466043 137 18.375 C141.48943911 19.56088958 145.88600124 20.97076754 150.28125 22.4609375 C152.38100987 23.16689125 154.48629308 23.85642971 156.59375 24.5390625 C162.80777914 26.55834729 168.90481472 28.62752439 174.82446289 31.41943359 C176.87708628 32.32101231 178.89585429 33.01927224 181.03515625 33.68359375 C230.9308197 50.07089498 278.18210623 81.72011862 318 115.375 C318.50450684 115.79604004 319.00901367 116.21708008 319.52880859 116.65087891 C336.69949304 130.98791451 353.88793796 146.36818616 368.37109375 163.46484375 C370.32237716 165.7530394 372.34817687 167.9659906 374.375 170.1875 C417.94089112 218.59404569 450.15224142 276.9106872 471 338.375 C471.56267578 340.03063965 471.56267578 340.03063965 472.13671875 341.71972656 C488.7708404 391.32403985 496.25244306 443.51352962 496.1875 495.75 C496.18659363 497.11579697 496.18659363 497.11579697 496.18566895 498.50918579 C496.01088735 596.31334155 467.35734641 691.33738617 390 803.375 C389.32251709 804.23134033 389.32251709 804.23134033 388.63134766 805.10498047 C386.13887611 808.23949815 383.58566564 811.31712946 381 814.375 C380.54173828 814.9220459 380.08347656 815.4690918 379.61132812 816.03271484 C373.98321628 822.74583005 368.29591738 829.25222223 362.01171875 835.3671875 C360.07432787 837.30081646 358.28049843 839.29707277 356.5 841.375 C350.92294316 847.85365956 344.83150149 853.75924031 338.33984375 859.3125 C336.48301837 860.94923423 334.67535663 862.61110843 332.87890625 864.3125 C325.51185629 871.2877859 317.96079286 877.76098531 309.89550781 883.91210938 C307.89744364 885.45414962 305.92793835 887.02793246 303.9609375 888.609375 C218.00657223 957.33942194 107.49003443 991.87332605 -12 991.375 C-12.97453125 991.36243164 -13.9490625 991.34986328 -14.953125 991.33691406 C-88.32305958 990.09550288 -159.6245217 969.92235573 -225 937.375 C-225.9084668 936.92543945 -226.81693359 936.47587891 -227.75292969 936.01269531 C-259.64750207 920.1301637 -289.68879083 899.53757965 -316.65136719 876.25292969 C-318.77513327 874.42013891 -320.91398832 872.61406983 -323.0703125 870.81884766 C-332.21208354 863.18910467 -340.69551384 854.98841387 -349.08813477 846.54760742 C-351.32019922 844.3047636 -353.56284214 842.07289508 -355.80664062 839.84179688 C-362.64151106 833.01288041 -369.29455 826.20890645 -375.25170898 818.58862305 C-376.99608061 816.37996259 -378.83694968 814.31313493 -380.75 812.25 C-386.95677426 805.3303685 -392.4445689 797.81838472 -398 790.375 C-398.80727539 789.29702148 -398.80727539 789.29702148 -399.63085938 788.19726562 C-417.29802087 764.50476281 -432.20222708 739.20193155 -445.4375 712.8125 C-445.77883972 712.13358704 -446.12017944 711.45467407 -446.47186279 710.75518799 C-450.65161134 702.41917973 -454.54659464 694.04414441 -458 685.375 C-458.30043213 684.63354736 -458.60086426 683.89209473 -458.91040039 683.12817383 C-465.24923411 667.40166009 -471.69618235 651.31013987 -475.41796875 634.7421875 C-475.98948473 632.4177668 -476.74043999 630.28438058 -477.625 628.0625 C-478.97868857 624.43215338 -479.49503784 621.19828493 -480 617.375 C-480.62599617 615.69263529 -481.28752268 614.0226038 -482 612.375 C-483.00835294 609.12586275 -483.30512438 605.85420075 -483.62109375 602.47265625 C-483.92965491 600.31305786 -483.92965491 600.31305786 -484.93603516 598.20068359 C-486.97621836 592.78235399 -487.60601801 586.96003683 -488.54956055 581.26489258 C-488.92219591 579.02931494 -489.31086952 576.79700259 -489.70117188 574.56445312 C-493.97882584 549.46699289 -495.56444438 524.40677606 -495.44683075 498.98972702 C-495.43731398 496.83283982 -495.43249782 494.67597705 -495.42828369 492.51907349 C-495.36883785 469.94377052 -494.50151616 447.70460381 -491 425.375 C-490.78882537 423.98552562 -490.57772559 422.59603987 -490.36669922 421.20654297 C-483.76789889 378.46906356 -471.62967218 336.86597705 -454 297.375 C-453.50918945 296.26608398 -453.01837891 295.15716797 -452.51269531 294.01464844 C-445.61006897 278.50201714 -438.0961073 263.53534228 -429.48291016 248.90283203 C-428.10805445 246.55919423 -426.75841703 244.20327948 -425.41796875 241.83984375 C-413.0382957 220.1524814 -398.17701353 199.38716023 -382 180.375 C-381.53883789 179.83037109 -381.07767578 179.28574219 -380.60253906 178.72460938 C-377.09492188 174.58484518 -373.57412716 170.45754754 -370 166.375 C-369.3817334 165.66625732 -368.7634668 164.95751465 -368.12646484 164.22729492 C-361.85088791 157.13794745 -355.2279485 150.41678683 -348.53515625 143.72485352 C-346.62990496 141.8174106 -344.73282387 139.90208533 -342.8359375 137.98632812 C-335.85948565 130.97815894 -328.75968657 124.51450551 -321 118.375 C-319.83553856 117.38063016 -318.6780884 116.37792577 -317.53125 115.36328125 C-304.66351329 103.98501058 -290.72699659 94.0992036 -276.5 84.5 C-275.59757568 83.88656738 -274.69515137 83.27313477 -273.76538086 82.64111328 C-272.92499268 82.08149902 -272.08460449 81.52188477 -271.21875 80.9453125 C-270.47560547 80.44789551 -269.73246094 79.95047852 -268.96679688 79.43798828 C-267 78.375 -267 78.375 -264 78.375 C-260.06406637 126.84330248 -257.38431082 175.33497529 -255.8968361 223.94053531 C-255.8127362 226.6798065 -255.72634462 229.41899952 -255.63989401 232.1581974 C-250.56581829 395.47075956 -250.56581829 395.47075956 -301.90751648 450.95039368 C-310.54905081 460.01381432 -319.88650683 468.19132613 -329.5625 476.125 C-330.34602105 476.7699506 -331.12954209 477.41490121 -331.9368062 478.07939577 C-349.3287701 492.33479509 -367.34337609 505.62048629 -386.81086445 516.91866016 C-387.91178519 517.5747058 -389.01270594 518.23075144 -390.14698792 518.90667725 C-391.11394876 519.46157711 -392.0809096 520.01647697 -393.07717228 520.58819199 C-393.71170543 521.17783863 -394.34623857 521.76748528 -395 522.375 C-394.95996299 526.02939703 -393.81909165 528.05662395 -391.29388428 530.60250854 C-390.71915878 531.19140366 -390.14443329 531.78029877 -389.55229187 532.38703918 C-388.91854141 533.01583481 -388.28479095 533.64463043 -387.63183594 534.29248047 C-386.96672501 534.96781326 -386.30161407 535.64314606 -385.61634827 536.33894348 C-383.41594969 538.5671325 -381.2010116 540.78015971 -378.984375 542.9921875 C-377.45034184 544.53399288 -375.91675813 546.07624557 -374.38360596 547.618927 C-371.16894026 550.8485155 -367.94663226 554.07024251 -364.71923828 557.28710938 C-360.5781643 561.41657544 -356.46030346 565.56836158 -352.3482933 569.7267437 C-349.18804704 572.91640265 -346.01410999 576.09215395 -342.83600616 579.26401138 C-341.31144015 580.78960634 -339.79161503 582.31995393 -338.2766037 583.85503769 C-336.16031169 585.9959135 -334.02593583 588.11694229 -331.88574219 590.23388672 C-330.94726189 591.19529823 -330.94726189 591.19529823 -329.98982239 592.1761322 C-326.73425663 595.48468931 -326.73425663 595.48468931 -322.39949036 596.56326294 C-319.2281521 594.99276956 -317.2032795 593.03416767 -314.72241211 590.50390625 C-313.97017616 589.74531815 -313.97017616 589.74531815 -313.20274353 588.97140503 C-312.11845375 587.87526815 -311.03883508 586.77449507 -309.96342278 585.66964722 C-308.26134189 583.92106093 -306.54741001 582.18491182 -304.82997131 580.45141602 C-301.18778585 576.7703822 -297.56237877 573.07306387 -293.9375 569.375 C-289.73273661 565.0898749 -285.52129011 560.81155029 -281.29828072 556.54440308 C-279.60996967 554.83290236 -277.93138289 553.11225361 -276.25315857 551.39086914 C-275.2185844 550.34220185 -274.18361704 549.29392227 -273.14819336 548.24609375 C-272.24838242 547.32755615 -271.34857147 546.40901855 -270.42149353 545.46264648 C-268 543.375 -268 543.375 -264 542.375 C-263.67 630.155 -263.34 717.935 -263 808.375 C-89.09 808.375 84.82 808.375 264 808.375 C264 720.925 264 633.475 264 543.375 C264.99 543.045 265.98 542.715 267 542.375 C267.99811958 543.39310509 267.99811958 543.39310509 269.0164032 544.43177795 C275.28290812 550.81980363 281.56511426 557.19201005 287.86311626 563.5489893 C291.10066278 566.81787591 294.33238242 570.09211918 297.55151367 573.37915039 C300.65718522 576.54991605 303.7771999 579.70588574 306.90778542 582.85204887 C308.10078399 584.05615146 309.28848023 585.26553101 310.47076988 586.48015022 C312.12531585 588.17812505 313.79757029 589.85650977 315.4753418 591.53149414 C315.9623053 592.0400293 316.4492688 592.54856445 316.95098877 593.07250977 C319.05736154 595.14121577 320.41732448 596.32502388 323.4072113 596.58146667 C327.32739219 594.75734286 329.98551946 591.96227466 333.00927734 588.91503906 C333.69436371 588.24017456 334.37945007 587.56531006 335.08529663 586.86999512 C337.34595114 584.63713346 339.59144587 582.38972524 341.8359375 580.140625 C343.40016305 578.58417155 344.96483598 577.02816758 346.52993774 575.47259521 C349.80660445 572.21085185 353.07541052 568.94146387 356.33935547 565.66699219 C360.52935327 561.46538662 364.74167715 557.28698733 368.96059227 553.11444473 C372.19657363 549.90787536 375.41864964 546.68761439 378.63682938 543.46318817 C380.18475292 541.91629362 381.73742937 540.3741404 383.29484177 538.83679962 C385.46684557 536.68937811 387.61901685 534.52386203 389.76708984 532.35253906 C390.41738159 531.71753479 391.06767334 531.08253052 391.7376709 530.42828369 C392.31806122 529.83386475 392.89845154 529.2394458 393.49642944 528.62701416 C394.00706121 528.11671787 394.51769299 527.60642159 395.04379845 527.08066177 C396.18538723 525.38314887 396.18538723 525.38314887 395.95105475 523.19045025 C394.54704403 519.03409402 391.82803124 516.65914812 388.73932552 513.62213421 C388.07464082 512.95283413 387.40995612 512.28353405 386.72512946 511.59395215 C384.47948644 509.33766146 382.21977412 507.09600412 379.95994568 504.85392761 C378.33718087 503.22941964 376.71529485 501.60403341 375.09421688 499.97784215 C370.62462754 495.49927906 366.14261113 491.03333338 361.65853941 486.56927693 C357.32441268 482.2525634 353.001618 477.92451653 348.67763597 473.59764611 C339.8304762 464.7452276 330.97402655 455.90215865 322.11227226 447.06435204 C313.33611871 438.31185421 304.56410267 429.55524372 295.79759407 420.7930851 C295.25282853 420.24859451 294.70806298 419.70410393 294.14678939 419.14311362 C291.38030197 416.37797951 288.61388843 413.61277151 285.84750331 410.84753505 C266.24527486 391.25371166 246.63378569 371.66918145 227.0168457 352.09008789 C207.95746677 333.06743734 188.90228695 314.04059655 169.8527832 295.00805664 C168.97223453 294.12829713 168.97223453 294.12829713 168.073897 293.23076469 C162.17876272 287.34090442 156.28371377 281.45095874 150.38872735 275.56095048 C138.37960559 263.56197399 126.36991425 251.56356767 114.35987854 239.56550598 C113.53154875 238.73799994 113.53154875 238.73799994 112.68648503 237.8937766 C75.80052851 201.04463223 38.90125488 164.20882361 2 127.375 C-0.96381972 129.07659231 -3.58662393 130.71152239 -6.00190353 133.13360119 C-6.81535063 133.94200019 -6.81535063 133.94200019 -7.64523101 134.76673049 C-8.51533415 135.64659533 -8.51533415 135.64659533 -9.40301514 136.54423523 C-10.03136521 137.17158202 -10.65971528 137.7989288 -11.30710626 138.4452861 C-13.40841134 140.54563963 -15.50248934 142.65305239 -17.59667969 144.76049805 C-19.10272745 146.26874726 -20.60922367 147.77654878 -22.11613464 149.28393555 C-25.35803889 152.52877218 -28.59676225 155.77673926 -31.83306122 159.02716637 C-36.94504669 164.16140185 -42.06409628 169.28855447 -47.18414307 174.41474915 C-55.27559264 182.51757811 -63.36235366 190.62506782 -71.44709039 198.73459417 C-85.94165584 213.27351888 -100.44185473 227.80682016 -114.94722104 242.33496886 C-120.04172796 247.43790937 -125.13341285 252.54364475 -130.22288561 257.65160596 C-133.3800685 260.81938979 -136.53924646 263.98517827 -139.69893837 267.15045929 C-141.17006082 268.6250684 -142.64031018 270.1005491 -144.10964775 271.57693672 C-146.10580911 273.58246916 -148.10496266 275.58496922 -150.10491943 277.5867157 C-150.69391108 278.17998443 -151.28290273 278.77325316 -151.88974261 279.38449973 C-155.88593551 283.375 -155.88593551 283.375 -157 283.375 C-157.495 156.16 -157.495 156.16 -158 26.375 C-150.17572803 22.89754579 -142.75177374 20.34026961 -134.5625 18.0625 C-133.87281128 17.86935211 -133.18312256 17.67620422 -132.47253418 17.47720337 C-107.07148274 10.40527852 -81.18124503 5.47943917 -55 2.375 C-54.35478394 2.28919678 -53.70956787 2.20339355 -53.0447998 2.11499023 C-35.43368404 -0.21359866 -17.72857739 -0.02191352 0 0 Z M-35 1.375 C-35 1.705 -35 2.035 -35 2.375 C-33.35 2.375 -31.7 2.375 -30 2.375 C-30 2.045 -30 1.715 -30 1.375 C-31.65 1.375 -33.3 1.375 -35 1.375 Z M32 1.375 C32 1.705 32 2.035 32 2.375 C33.65 2.375 35.3 2.375 37 2.375 C37 2.045 37 1.715 37 1.375 C35.35 1.375 33.7 1.375 32 1.375 Z M-46 2.375 C-42 3.375 -42 3.375 -42 3.375 Z M-483 387.375 C-482 389.375 -482 389.375 -482 389.375 Z M-485 396.375 C-484 398.375 -484 398.375 -484 398.375 Z M-487 407.375 C-486 409.375 -486 409.375 -486 409.375 Z M-489 419.375 C-488 421.375 -488 421.375 -488 421.375 Z M-490 425.375 C-489 428.375 -489 428.375 -489 428.375 Z M-491 432.375 C-490 435.375 -490 435.375 -490 435.375 Z M-492 441.375 C-491 444.375 -491 444.375 -491 444.375 Z M-493 452.375 C-492 455.375 -492 455.375 -492 455.375 Z M-494 463.375 C-494 465.355 -494 467.335 -494 469.375 C-493.67 469.375 -493.34 469.375 -493 469.375 C-493 467.395 -493 465.415 -493 463.375 C-493.33 463.375 -493.66 463.375 -494 463.375 Z M-494 523.375 C-494 525.355 -494 527.335 -494 529.375 C-493.67 529.375 -493.34 529.375 -493 529.375 C-493 527.395 -493 525.415 -493 523.375 C-493.33 523.375 -493.66 523.375 -494 523.375 Z M398 523.375 C399 525.375 399 525.375 399 525.375 Z M-493 537.375 C-492 540.375 -492 540.375 -492 540.375 Z M-492 548.375 C-491 551.375 -491 551.375 -491 551.375 Z M-491 557.375 C-490 559.375 -490 559.375 -490 559.375 Z M-490 564.375 C-489 566.375 -489 566.375 -489 566.375 Z M-489 571.375 C-488 573.375 -488 573.375 -488 573.375 Z M-488 577.375 C-487 579.375 -487 579.375 -487 579.375 Z M-487 583.375 C-486 585.375 -486 585.375 -486 585.375 Z " fill="#E0321B" transform="translate(639,143.625)"/>
<path d="M0 0 C3.74780525 1.70536868 7.04500525 3.99682515 10.40338135 6.35273743 C11.04386083 6.8013299 11.68434031 7.24992237 12.34422827 7.71210855 C36.75615137 24.90907469 59.82859591 43.60159327 82.25 63.3125 C83.17496088 64.12213888 84.09992176 64.93177776 85.05291176 65.76595116 C133.38055452 108.21633148 165.15838919 149.91485332 169.58700132 214.64365834 C169.87677876 219.17596608 170.11447271 223.71038954 170.34375 228.24609375 C170.45207579 230.25891245 170.56048015 232.27172584 170.66975224 234.2844934 C173.73370765 298.23152291 164.92680437 363.96216967 160 427 C55.72 427 -48.56 427 -156 427 C-169.1950782 266.81974769 -169.1950782 266.81974769 -167.41656017 231.78369927 C-167.30822621 229.63300306 -167.20027741 227.4823732 -167.09919226 225.33132216 C-164.02611308 160.1702214 -141.35184423 118.92564744 -92.62494034 74.10261875 C-87.98086799 69.89344101 -83.28163128 65.74968502 -78.5625 61.625 C-77.15505358 60.39000409 -77.15505358 60.39000409 -75.71917391 59.13005877 C-51.54701835 37.96712826 -26.42106685 18.27332894 0 0 Z " fill="#E0321B" transform="translate(638,420)"/>
<path d="M0 0 C0.33 0 0.66 0 1 0 C1 87.45 1 174.9 1 265 C0.67 265 0.34 265 0 265 C0 177.55 0 90.1 0 0 Z " fill="#E0321B" transform="translate(480,579)"/>
<path d="M0 0 C0.33 0 0.66 0 1 0 C1 82.83 1 165.66 1 251 C0.67 251 0.34 251 0 251 C0 168.17 0 85.34 0 0 Z " fill="#E0321B" transform="translate(480,171)"/>
<path d="M0 0 C9.9 0 19.8 0 30 0 C30 0.33 30 0.66 30 1 C20.1 1 10.2 1 0 1 C0 0.67 0 0.34 0 0 Z " fill="#E0321B" transform="translate(625,143)"/>
<path d="M0 0 C0.33 0 0.66 0 1 0 C1 2.64 1 5.28 1 8 C0.67 8 0.34 8 0 8 C0 5.36 0 2.72 0 0 Z " fill="#E0321B" transform="translate(143,636)"/>
</svg>
